<?xml version="1.0" encoding="utf-8"?>
<!-- Generator: Adobe Illustrator 19.0.0, SVG Export Plug-In . SVG Version: 6.00 Build 0)  -->
<svg version="1.1" id="Layer_1" xmlns="http://www.w3.org/2000/svg" xmlns:xlink="http://www.w3.org/1999/xlink" x="0px" y="0px"
	 viewBox="0 0 178 158" enable-background="new 0 0 178 158" xml:space="preserve">
<g>
	<defs>
		<rect id="SVGID_1_" x="-99" y="-255" width="375" height="667"/>
	</defs>
	<clipPath id="SVGID_2_">
		<use xlink:href="#SVGID_1_"  overflow="visible"/>
	</clipPath>
	<path opacity="0.9412" clip-path="url(#SVGID_2_)" fill="none" stroke="#FFFFFF" stroke-width="8" stroke-miterlimit="10" d="
		M89,47c21.3,0,41.1,3.1,56,8.2c18,6.2,29,15.6,29,24.1c0,8.9-11.7,18.9-31,25.3c-14.6,4.8-33.8,7.4-54,7.4
		c-20.7,0-40.3-2.4-55.1-7.4C15.2,98.2,4,88,4,79.3c0-8.4,10.5-17.8,28.3-24C47.2,50.1,67.5,47,89,47z"/>
	<path opacity="0.9412" clip-path="url(#SVGID_2_)" fill="none" stroke="#FFFFFF" stroke-width="8" stroke-miterlimit="10" d="
		M60.6,62.9c10.6-18.4,23.1-34,35-44.3c14.3-12.4,27.9-17.3,35.2-13.1c7.6,4.4,10.4,19.5,6.3,39.4c-3.1,15-10.5,32.9-20.6,50.3
		c-10.3,17.9-22.2,33.7-33.9,43.9c-14.8,13-29.1,17.6-36.6,13.3c-7.3-4.2-10.1-18-6.6-36.3C42.4,100.5,49.9,81.5,60.6,62.9z"/>
	<path opacity="0.9412" clip-path="url(#SVGID_2_)" fill="none" stroke="#FFFFFF" stroke-width="8" stroke-miterlimit="10" d="
		M60.5,95.1c-10.6-18.4-17.8-37-20.9-52.5C36,24,38.6,9.8,45.9,5.6c7.6-4.4,22,0.7,37.2,14.2c11.4,10.2,23.2,25.5,33.2,43
		c10.3,17.9,18.1,36,21.1,51.3c3.8,19.3,0.7,34.1-6.7,38.4c-7.3,4.2-20.5-0.2-34.7-12.5C84,129.7,71.2,113.7,60.5,95.1z"/>
</g>
<g>
	<defs>
		<rect id="SVGID_3_" x="-99" y="-255" width="375" height="667"/>
	</defs>
	<clipPath id="SVGID_4_">
		<use xlink:href="#SVGID_3_"  overflow="visible"/>
	</clipPath>
	<g clip-path="url(#SVGID_4_)">
		<defs>
			<polygon id="SVGID_5_" points="95.7,95.5 101.9,95.5 96.9,99.2 98.8,93.2 100.7,99.2 			"/>
		</defs>
		<clipPath id="SVGID_6_">
			<use xlink:href="#SVGID_5_"  overflow="visible"/>
		</clipPath>
		<rect x="90.7" y="88.2" clip-path="url(#SVGID_6_)" fill="#FFFF00" width="16.2" height="16"/>
	</g>
</g>
<g>
	<defs>
		<rect id="SVGID_7_" x="-99" y="-255" width="375" height="667"/>
	</defs>
	<clipPath id="SVGID_8_">
		<use xlink:href="#SVGID_7_"  overflow="visible"/>
	</clipPath>
	<g clip-path="url(#SVGID_8_)">
		<defs>
			<polygon id="SVGID_9_" points="102.6,88.5 108.9,88.5 103.8,92.2 105.7,86.2 107.7,92.2 			"/>
		</defs>
		<clipPath id="SVGID_10_">
			<use xlink:href="#SVGID_9_"  overflow="visible"/>
		</clipPath>
		<rect x="97.6" y="81.2" clip-path="url(#SVGID_10_)" fill="#FFFF00" width="16.2" height="16"/>
	</g>
</g>
<g>
	<defs>
		<rect id="SVGID_11_" x="-99" y="-255" width="375" height="667"/>
	</defs>
	<clipPath id="SVGID_12_">
		<use xlink:href="#SVGID_11_"  overflow="visible"/>
	</clipPath>
	<g clip-path="url(#SVGID_12_)">
		<defs>
			<polygon id="SVGID_13_" points="82.8,95.5 76.6,95.5 81.7,99.2 79.7,93.2 77.8,99.2 			"/>
		</defs>
		<clipPath id="SVGID_14_">
			<use xlink:href="#SVGID_13_"  overflow="visible"/>
		</clipPath>
		<rect x="71.6" y="88.2" clip-path="url(#SVGID_14_)" fill="#FFFF00" width="16.2" height="16"/>
	</g>
</g>
<g>
	<defs>
		<rect id="SVGID_15_" x="-99" y="-255" width="375" height="667"/>
	</defs>
	<clipPath id="SVGID_16_">
		<use xlink:href="#SVGID_15_"  overflow="visible"/>
	</clipPath>
	<g clip-path="url(#SVGID_16_)">
		<defs>
			<polygon id="SVGID_17_" points="75.9,88.5 69.7,88.5 74.7,92.2 72.8,86.2 70.8,92.2 			"/>
		</defs>
		<clipPath id="SVGID_18_">
			<use xlink:href="#SVGID_17_"  overflow="visible"/>
		</clipPath>
		<rect x="64.7" y="81.2" clip-path="url(#SVGID_18_)" fill="#FFFF00" width="16.2" height="16"/>
	</g>
</g>
<g>
	<defs>
		<rect id="SVGID_19_" x="-99" y="-255" width="375" height="667"/>
	</defs>
	<clipPath id="SVGID_20_">
		<use xlink:href="#SVGID_19_"  overflow="visible"/>
	</clipPath>
	<g clip-path="url(#SVGID_20_)">
		<defs>
			<polygon id="SVGID_21_" points="92.4,98.1 86.1,98.1 91.2,101.8 89.3,95.8 87.3,101.8 			"/>
		</defs>
		<clipPath id="SVGID_22_">
			<use xlink:href="#SVGID_21_"  overflow="visible"/>
		</clipPath>
		<rect x="81.1" y="90.8" clip-path="url(#SVGID_22_)" fill="#FFFF00" width="16.2" height="16"/>
	</g>
</g>
<g>
	<defs>
		<rect id="SVGID_23_" x="-99" y="-255" width="375" height="667"/>
	</defs>
	<clipPath id="SVGID_24_">
		<use xlink:href="#SVGID_23_"  overflow="visible"/>
	</clipPath>
	<g clip-path="url(#SVGID_24_)">
		<defs>
			<polygon id="SVGID_25_" points="82.8,62 76.6,62 81.7,65.7 79.7,59.7 77.8,65.7 			"/>
		</defs>
		<clipPath id="SVGID_26_">
			<use xlink:href="#SVGID_25_"  overflow="visible"/>
		</clipPath>
		<rect x="71.6" y="54.7" clip-path="url(#SVGID_26_)" fill="#FFFF00" width="16.2" height="16"/>
	</g>
</g>
<g>
	<defs>
		<rect id="SVGID_27_" x="-99" y="-255" width="375" height="667"/>
	</defs>
	<clipPath id="SVGID_28_">
		<use xlink:href="#SVGID_27_"  overflow="visible"/>
	</clipPath>
	<g clip-path="url(#SVGID_28_)">
		<defs>
			<polygon id="SVGID_29_" points="75.9,69.1 69.7,69.1 74.7,72.8 72.8,66.8 70.8,72.8 			"/>
		</defs>
		<clipPath id="SVGID_30_">
			<use xlink:href="#SVGID_29_"  overflow="visible"/>
		</clipPath>
		<rect x="64.7" y="61.8" clip-path="url(#SVGID_30_)" fill="#FFFF00" width="16.2" height="16"/>
	</g>
</g>
<g>
	<defs>
		<rect id="SVGID_31_" x="-99" y="-255" width="375" height="667"/>
	</defs>
	<clipPath id="SVGID_32_">
		<use xlink:href="#SVGID_31_"  overflow="visible"/>
	</clipPath>
	<g clip-path="url(#SVGID_32_)">
		<defs>
			<polygon id="SVGID_33_" points="73.3,78.8 67.1,78.8 72.1,82.5 70.2,76.5 68.3,82.5 			"/>
		</defs>
		<clipPath id="SVGID_34_">
			<use xlink:href="#SVGID_33_"  overflow="visible"/>
		</clipPath>
		<rect x="62.1" y="71.5" clip-path="url(#SVGID_34_)" fill="#FFFF00" width="16.2" height="16"/>
	</g>
</g>
<g>
	<defs>
		<rect id="SVGID_35_" x="-99" y="-255" width="375" height="667"/>
	</defs>
	<clipPath id="SVGID_36_">
		<use xlink:href="#SVGID_35_"  overflow="visible"/>
	</clipPath>
	<g clip-path="url(#SVGID_36_)">
		<defs>
			<polygon id="SVGID_37_" points="95.7,62 101.9,62 96.9,65.7 98.8,59.7 100.7,65.7 			"/>
		</defs>
		<clipPath id="SVGID_38_">
			<use xlink:href="#SVGID_37_"  overflow="visible"/>
		</clipPath>
		<rect x="90.7" y="54.7" clip-path="url(#SVGID_38_)" fill="#FFFF00" width="16.2" height="16"/>
	</g>
</g>
<g>
	<defs>
		<rect id="SVGID_39_" x="-99" y="-255" width="375" height="667"/>
	</defs>
	<clipPath id="SVGID_40_">
		<use xlink:href="#SVGID_39_"  overflow="visible"/>
	</clipPath>
	<g clip-path="url(#SVGID_40_)">
		<defs>
			<polygon id="SVGID_41_" points="102.6,69.1 108.9,69.1 103.8,72.8 105.7,66.8 107.7,72.8 			"/>
		</defs>
		<clipPath id="SVGID_42_">
			<use xlink:href="#SVGID_41_"  overflow="visible"/>
		</clipPath>
		<rect x="97.6" y="61.8" clip-path="url(#SVGID_42_)" fill="#FFFF00" width="16.2" height="16"/>
	</g>
</g>
<g>
	<defs>
		<rect id="SVGID_43_" x="-99" y="-255" width="375" height="667"/>
	</defs>
	<clipPath id="SVGID_44_">
		<use xlink:href="#SVGID_43_"  overflow="visible"/>
	</clipPath>
	<g clip-path="url(#SVGID_44_)">
		<defs>
			<polygon id="SVGID_45_" points="105.2,78.8 111.4,78.8 106.4,82.5 108.3,76.5 110.2,82.5 			"/>
		</defs>
		<clipPath id="SVGID_46_">
			<use xlink:href="#SVGID_45_"  overflow="visible"/>
		</clipPath>
		<rect x="100.2" y="71.5" clip-path="url(#SVGID_46_)" fill="#FFFF00" width="16.2" height="16"/>
	</g>
</g>
<g>
	<defs>
		<rect id="SVGID_47_" x="-99" y="-255" width="375" height="667"/>
	</defs>
	<clipPath id="SVGID_48_">
		<use xlink:href="#SVGID_47_"  overflow="visible"/>
	</clipPath>
	<g clip-path="url(#SVGID_48_)">
		<defs>
			<polygon id="SVGID_49_" points="86.1,59.4 92.4,59.4 87.3,63.1 89.3,57.1 91.2,63.1 			"/>
		</defs>
		<clipPath id="SVGID_50_">
			<use xlink:href="#SVGID_49_"  overflow="visible"/>
		</clipPath>
		<rect x="81.1" y="52.1" clip-path="url(#SVGID_50_)" fill="#FFFF00" width="16.2" height="16"/>
	</g>
</g>
</svg>
